<svg width="750" height="750" viewBox="0 0 750 750" fill="none" xmlns="http://www.w3.org/2000/svg">
<rect width="750" height="750" fill="#FF4365"/>
<path d="M253.73 257.173C252.835 257.472 252.86 259.539 252.984 260.535C255.596 263.896 219.398 328.883 217.159 334.859C214.92 340.834 236.938 344.196 241.416 344.943C245.894 345.69 260.448 356.521 291.794 391.629C323.141 426.737 335.829 463.338 339.934 516C351.875 489.109 376.132 467.073 404.493 449.893C432.854 432.712 460.096 493.964 491.069 449.893C522.042 405.821 673.551 413.665 684 410.303C681.388 409.183 679.522 408.062 673.551 408.809C667.58 409.556 638.846 386.4 621.68 372.207C604.514 358.015 536.223 312.823 526.894 307.968C517.564 303.112 478.754 264.27 475.023 260.161C471.291 256.053 451.139 241.86 417.554 235.511C383.968 229.162 328.738 236.632 317.543 238.499C306.348 240.366 293.287 241.86 286.57 243.354C279.853 244.848 262.313 254.185 260.448 254.932C258.582 255.679 254.85 256.8 253.73 257.173Z" fill="#111827"/>
<path d="M87.3001 293.357C72.7307 301.124 66.3628 311.531 65 315.763C69.0884 312.402 76.5217 311.656 77.2651 311.656C114.804 310.162 218.871 337.797 216.269 337.05C217.012 333.689 229.277 336.676 254.551 337.797C279.824 338.917 286.886 347.133 301.753 349C287.629 329.207 291.718 325.846 293.948 322.859C296.178 319.871 299.151 324.353 300.266 323.606C301.381 322.859 299.894 319.498 303.239 320.245C306.584 320.992 311.416 328.834 315.133 329.954C318.849 331.075 329.256 331.822 332.23 331.822C335.203 331.822 335.203 329.954 334.831 328.087C334.46 326.22 328.141 322.112 325.911 320.245C323.681 318.378 324.796 316.137 322.566 316.137C320.336 316.137 319.221 315.017 316.619 313.149C314.018 311.282 305.469 310.162 303.983 310.162C302.496 310.162 303.611 306.427 302.124 304.56C300.638 302.693 295.063 301.573 292.833 300.452C291.049 299.556 278.462 290.867 272.391 286.635C273.382 287.88 275.067 290.593 273.878 291.49C272.391 292.61 254.551 283.647 251.577 279.166C248.604 274.685 259.011 268.336 256.409 259C214.782 260.494 105.512 283.647 87.3001 293.357Z" fill="#7B6D8D" stroke="#111827" stroke-width="2"/>
<path d="M362.714 308.028C350.509 304.413 351.178 290.202 353.039 283.549C353.039 282.67 354.158 280.993 356.837 278.884C360.186 276.247 372.615 270.469 382.513 277.001C387.428 280.244 387.722 290.935 386.156 296.73C385.268 300.02 377.97 312.548 362.714 308.028Z" fill="#F8F991"/>
<path d="M230.162 271.47C229.869 270.874 230.04 270.477 230.162 270.353C231.259 269.235 232.721 271.097 234.549 271.47C236.378 271.842 240.034 271.47 241.863 272.214C243.691 272.959 246.616 277.055 245.885 277.8C245.154 278.544 238.572 277.055 236.378 275.938C234.184 274.821 235.281 274.448 233.818 273.331C232.355 272.214 230.527 272.214 230.162 271.47Z" fill="black"/>
<path d="M328 328C325.645 325.813 319.595 321.001 314.24 319.251C307.546 317.064 294.53 308.679 285.233 306.856C275.936 305.034 266.266 301.388 258.085 301.024C249.903 300.659 214.574 304.669 186.682 302.846C158.791 301.024 153.212 298.472 74 311.96" stroke="black" stroke-width="2"/>
<path fill-rule="evenodd" clip-rule="evenodd" d="M336.86 289.229C336.736 289.353 336.86 289.825 338.351 290.72C339.822 291.602 340.365 294.804 340.711 296.85C340.804 297.397 340.883 297.862 340.961 298.177C341.049 298.529 341.096 298.923 341.145 299.339C341.304 300.684 341.49 302.258 343.199 303.397C344.254 304.101 345.309 303.809 346.285 303.539C347.38 303.236 348.376 302.961 349.165 304.143C349.282 304.32 349.416 304.533 349.568 304.776C351.351 307.62 355.698 314.554 366.689 314.211C378.621 313.838 393.163 305.635 395.027 285.873C392.044 271.331 378.248 270.585 371.91 271.331C367.876 271.805 360.973 275.602 355.718 278.492C352.715 280.144 350.249 281.5 349.165 281.771C346.182 282.517 338.351 284.754 336.86 289.229ZM339.47 289.601C340.464 289.601 342.9 290.123 344.69 292.211C345.323 292.949 345.955 294.283 346.722 295.901C348.669 300.007 351.484 305.943 357.368 308.618C365.571 312.346 374.892 310.482 380.858 306.008C386.824 301.533 389.434 293.703 390.18 286.246C387.197 279.161 380.858 275.805 378.248 275.432C375.638 275.06 365.571 273.941 355.876 280.653C349.029 285.393 345.344 285.669 343.376 285.817C342.557 285.878 342.036 285.917 341.707 286.246C341.428 286.525 341.078 286.805 340.728 287.085C339.68 287.923 338.631 288.762 339.47 289.601Z" fill="#7B6D8D"/>
<ellipse cx="367.5" cy="290" rx="8.5" ry="9" fill="#111827"/>
</svg>
